<?xml version="1.0" encoding="UTF-8" standalone="no"?>
<svg xmlns="http://www.w3.org/2000/svg" xmlns:xlink="http://www.w3.org/1999/xlink" xmlns:serif="http://www.serif.com/" width="100%" height="100%" viewBox="0 0 1233 316" version="1.1" xml:space="preserve" style="fill-rule:evenodd;clip-rule:evenodd;stroke-linejoin:round;stroke-miterlimit:2;">
    <g transform="matrix(1.12328,0,0,1.12328,-892.082,-780.015)">
        <g>
            <g>
                <g id="Artboard1">
                    <g>
                        <g transform="matrix(4.16667,0,0,4.16667,-3677.2,-1432.17)">
                            <path d="M1104.56,529.745C1101.7,526.888 1095.99,526.888 1090.27,526.888C1084.56,526.888 1078.85,526.888 1075.99,529.591C1073.13,532.294 1073.13,537.7 1073.13,543.415C1073.13,549.13 1073.13,555.153 1075.99,558.164C1078.5,560.81 1083.22,561.131 1088.2,561.169L1088.2,554.028C1086.26,553.63 1084.49,552.68 1083.06,551.25C1081.13,549.322 1080.07,546.758 1080.07,544.032C1080.07,541.305 1081.13,538.741 1083.06,536.813C1084.98,534.885 1087.55,533.823 1090.27,533.823C1093,533.823 1095.56,534.885 1097.49,536.813C1099.42,538.741 1100.48,541.305 1100.48,544.032C1100.48,546.759 1099.42,549.323 1097.49,551.251C1096.06,552.68 1094.28,553.63 1092.35,554.028L1092.35,561.17C1097.33,561.133 1102.05,560.829 1104.56,558.318C1107.42,555.461 1107.42,549.746 1107.42,544.032C1107.42,538.317 1107.42,532.602 1104.56,529.745M1094.56,548.318C1093.41,549.463 1091.89,550.093 1090.27,550.093C1088.66,550.093 1087.13,549.463 1085.99,548.318C1084.84,547.173 1084.21,545.651 1084.21,544.032C1084.21,542.413 1084.84,540.89 1085.99,539.746C1087.13,538.601 1088.65,537.971 1090.27,537.971C1091.89,537.971 1093.42,538.601 1094.56,539.746C1095.7,540.89 1096.33,542.413 1096.33,544.032C1096.33,545.651 1095.7,547.173 1094.56,548.318" style="fill:rgb(225,89,42);fill-rule:nonzero;"></path>
                        </g>
                        <g transform="matrix(0.495872,0,0,0.494837,979.947,902.399)">
                            <path d="M176.946,-261.494C153.998,-271.76 128.029,-277.8 106.289,-277.8C50.729,-277.8 18.117,-243.98 18.117,-199.895C18.117,-96.626 140.108,-142.523 140.108,-80.32C140.108,-52.54 119.575,-36.839 88.171,-36.839C66.43,-36.839 42.878,-43.482 22.345,-53.748L22.345,-9.059C45.897,0.604 66.43,5.435 86.963,5.435C142.523,5.435 181.778,-28.384 181.778,-80.32C181.778,-184.797 59.787,-138.296 59.787,-201.103C59.787,-222.24 77.301,-237.941 104.477,-237.941C126.822,-237.941 155.809,-228.883 176.946,-216.2L176.946,-261.494Z" style="fill:rgb(48,84,89);"></path>
                            <path d="M506.078,-94.21L460.785,-94.21C444.479,-59.787 410.056,-36.235 370.198,-36.235C323.093,-36.235 283.235,-69.45 272.968,-113.535L461.993,-113.535C489.773,-113.535 507.89,-129.841 507.89,-157.017C507.89,-216.2 443.875,-277.8 370.198,-277.8C292.293,-277.8 228.279,-213.785 228.279,-135.88C228.279,-57.976 292.293,5.435 370.198,5.435C433.609,5.435 486.753,-36.235 506.078,-94.21ZM467.428,-157.017L272.968,-157.017C282.631,-201.707 322.489,-236.13 370.198,-236.13C417.907,-236.13 457.161,-202.311 467.428,-157.017Z" style="fill:rgb(48,84,89);"></path>
                            <path d="M887.147,-170.303L887.147,0L928.213,0L928.213,-166.68C928.213,-234.318 879.296,-277.8 824.944,-277.8C797.768,-277.8 769.988,-265.721 743.416,-234.922C715.636,-266.929 693.895,-277.8 659.472,-277.8C605.12,-277.8 556.203,-234.318 556.203,-166.68L556.203,0L597.269,0L597.269,-170.303C597.269,-209.557 624.445,-236.13 659.472,-236.13C694.499,-236.13 721.675,-209.557 721.675,-170.303L721.675,0L762.741,0L762.741,-170.303C762.741,-209.557 789.917,-236.13 824.944,-236.13C859.971,-236.13 887.147,-209.557 887.147,-170.303Z" style="fill:rgb(48,84,89);"></path>
                            <path d="M1272.44,-135.88C1272.44,-213.785 1208.43,-277.8 1130.52,-277.8C1052.62,-277.8 988.604,-213.785 988.604,-135.88L988.604,147.355L1033.29,147.355L1033.29,-33.215C1058.66,-9.059 1093.08,5.435 1130.52,5.435C1208.43,5.435 1272.44,-57.976 1272.44,-135.88ZM1230.17,-135.88C1230.17,-80.924 1185.48,-36.235 1130.52,-36.235C1075.57,-36.235 1030.88,-80.924 1030.88,-135.88C1030.88,-190.836 1075.57,-236.13 1130.52,-236.13C1185.48,-236.13 1230.17,-190.836 1230.17,-135.88Z" style="fill:rgb(48,84,89);"></path>
                            <rect x="1320.76" y="-420.323" width="41.066" height="420.323" style="fill:rgb(48,84,89);"></rect>
                            <path d="M1693.97,-135.88C1693.97,-213.785 1629.96,-277.8 1552.05,-277.8C1474.15,-277.8 1410.13,-213.785 1410.13,-135.88C1410.13,-57.976 1474.15,5.435 1552.05,5.435C1629.96,5.435 1693.97,-57.976 1693.97,-135.88ZM1651.7,-135.88C1651.7,-80.924 1607.01,-36.235 1552.05,-36.235C1497.1,-36.235 1452.41,-80.924 1452.41,-135.88C1452.41,-190.836 1497.1,-236.13 1552.05,-236.13C1607.01,-236.13 1651.7,-190.836 1651.7,-135.88Z" style="fill:rgb(48,84,89);"></path>
                            <path d="M1838.31,-272.364L1822,-272.364C1773.09,-272.364 1742.29,-245.188 1742.29,-187.817L1742.29,0L1783.35,0L1783.35,-181.778C1783.35,-218.616 1798.45,-230.09 1825.02,-230.09L1838.31,-230.09L1838.31,-272.364Z" style="fill:rgb(48,84,89);"></path>
                        </g>
                    </g>
                </g>
            </g>
        </g>
    </g>
</svg>
